<?xml version="1.0" encoding="utf-8"?>
<!-- Generator: Adobe Illustrator 20.1.0, SVG Export Plug-In . SVG Version: 6.00 Build 0)  -->
<svg version="1.1"
	 id="Layer_1" inkscape:version="0.48.2 r9819" sodipodi:docname="EL_AL_New_Logo (1).svg" xmlns:cc="http://creativecommons.org/ns#" xmlns:dc="http://purl.org/dc/elements/1.1/" xmlns:inkscape="http://www.inkscape.org/namespaces/inkscape" xmlns:rdf="http://www.w3.org/1999/02/22-rdf-syntax-ns#" xmlns:sodipodi="http://sodipodi.sourceforge.net/DTD/sodipodi-0.dtd" xmlns:svg="http://www.w3.org/2000/svg"
	 xmlns="http://www.w3.org/2000/svg" xmlns:xlink="http://www.w3.org/1999/xlink" x="0px" y="0px" viewBox="0 0 1651.1 199.8"
	 style="enable-background:new 0 0 1651.1 199.8;" xml:space="preserve">
<style type="text/css">
	.st0{fill:#FFFFFF;}
</style>
<sodipodi:namedview  bordercolor="#666666" borderopacity="1" fit-margin-bottom="0" fit-margin-left="0" fit-margin-right="0" fit-margin-top="0" gridtolerance="10" guidetolerance="10" id="namedview15" inkscape:current-layer="Layer_1" inkscape:cx="861.05786" inkscape:cy="67.911228" inkscape:pageopacity="0" inkscape:pageshadow="2" inkscape:window-height="962" inkscape:window-maximized="1" inkscape:window-width="1280" inkscape:window-x="-8" inkscape:window-y="-8" inkscape:zoom="0.49929155" objecttolerance="10" pagecolor="#ffffff" showgrid="false">
	</sodipodi:namedview>
<g id="g3123" transform="translate(-1.3714117,1.3575411)">
	<path id="path260" inkscape:connector-curvature="0" class="st0" d="M821.1,191.2c0,4-3.2,7.2-7.2,7.2h-27.2c-4,0-7.2-3.2-7.2-7.2
		v-23.7h-77.2l-9.5,20.2c-3.9,8.3-7,10.7-13.4,10.7h-22.8c-8.6,0-10.3-4.5-7.4-10.7l62.9-135c7.1-15.2,21.5-24.4,35.5-24.4l66.3,0
		c4,0,7.2,3.2,7.2,7.2V191.2L821.1,191.2z M780.8,72.2c0-3.6-2.9-6.5-6.5-6.5h-18.8c-4,0-6,1.2-7,3.4c-0.6,1.2-28.6,60.8-28.6,60.8
		l54.4,0c3.5,0,6.3-2.7,6.5-6.1V72.2L780.8,72.2z"/>
	<path id="path264" inkscape:connector-curvature="0" class="st0" d="M1327.8,158.1h258.4c4.7,0,6.7,3.8,4.5,8.5l-10.9,23.3
		c-2.2,4.7-7.8,8.5-12.5,8.5H1309c-4.7,0-6.7-3.8-4.5-8.5l10.9-23.3C1317.6,161.9,1323.1,158.1,1327.8,158.1"/>
	<path id="path268" inkscape:connector-curvature="0" class="st0" d="M1.4,191.5V72.7c0-24.2,19.3-43.9,43.4-44.4h122.5
		c3.8,0,6.9,3.1,6.9,6.9v28.5c0,2.5-2,4.6-4.6,4.6H51.8c-3.6,0-6.5,2.9-6.5,6.5v13.2c0,3.5,2.8,6.4,6.3,6.5h106.9
		c3.6,0,6.5,2.9,6.5,6.5v24.3c0,3.6-2.9,6.5-6.5,6.5H51.8c-3.6,0-6.5,2.9-6.5,6.5v13c0,3.6,2.9,6.5,6.5,6.5l120.5,0
		c3.2,0,4.4,1.1,3,3.9c-5.5,11.5-9.3,19.5-13.6,28.5c-3.3,6.9-6.2,7.9-9.2,7.9H8.3C4.5,198.4,1.4,195.3,1.4,191.5"/>
	<path id="path272" inkscape:connector-curvature="0" class="st0" d="M302.2,61.4V5.6c0-3.8,3.1-6.9,6.9-6.9h27.3
		c3.8,0,6.9,3.1,6.9,6.9v16.5c0.2,3.4,3,6.2,6.5,6.2H443c29.1,0,42.2,31.9,31.6,54.6c-3.1,6.6-52.6,111.8-52.6,111.8
		c-1.2,2.6-3,3.7-6.3,3.7h-33.4c-8.6,0-10.3-4.4-7.4-10.6c0,0,51.8-110,52.7-111.9c2.2-4.7-2.3-7.5-6.7-7.5H309.1
		C305.3,68.3,302.2,65.2,302.2,61.4"/>
	<path id="path276" inkscape:connector-curvature="0" class="st0" d="M195.3,191.5V35.2c0-3.8,3.1-6.9,6.9-6.9h26.3
		c3.8,0,6.9,3.1,6.9,6.9v116.7c0.2,3.5,3,6.2,6.5,6.2H355c3.2,0,4.4,1.1,3,3.9l-13.6,28.5c-3.3,6.9-6.2,7.9-9.2,7.9h-133
		C198.4,198.4,195.3,195.3,195.3,191.5"/>
	<path id="path280" inkscape:connector-curvature="0" class="st0" d="M577.9,198.4H459.3c-8.6,0-10.3-4.4-7.4-10.6
		c0,0,10.7-22.7,12-25.5c1.3-2.7,2.7-4.1,7.1-4.1h65.5c0,0-26.7-118.1-27.6-121.8c-1-4.2,2.5-8,6.8-8h31.2c3,0,6.5,2,7.2,4.7
		c0.5,2.3,27,120.9,27.5,123.1c1.2,5.4,3,5.8,5.4,0.3c0.7-1.5,52.7-122,53.7-124.3c1-2.3,3.1-3.8,5.9-3.8h35.7
		c4.7,0,7.8,5.6,5.5,10.9c-2.1,4.7-52.8,118.3-54.2,121.5C619.5,191.8,604.3,198.4,577.9,198.4"/>
	<path id="path284" inkscape:connector-curvature="0" class="st0" d="M847.3,191.5V35.2c0-3.8,3.1-6.9,6.9-6.9h26.3
		c3.8,0,6.9,3.1,6.9,6.9v116.7c0.2,3.5,3,6.2,6.5,6.2h113.1c3.2,0,4.4,1.1,3,3.9l-13.7,28.5c-3.3,6.9-6.2,7.9-9.2,7.9h-133
		C850.4,198.4,847.3,195.3,847.3,191.5"/>
	<path id="path288" inkscape:connector-curvature="0" class="st0" d="M954.4,61.4V5.6c0-3.8,3.1-6.9,6.9-6.9h27.3
		c3.8,0,6.9,3.1,6.9,6.9v16.5c0.2,3.4,3,6.2,6.5,6.2h93.1c29.1,0,42.2,31.9,31.6,54.6c-3.1,6.6-52.6,111.8-52.6,111.8
		c-1.2,2.6-3,3.7-6.3,3.7h-33.4c-8.6,0-10.3-4.4-7.4-10.6c0,0,51.8-110,52.7-111.9c2.2-4.7-2.3-7.5-6.7-7.5H961.3
		C957.5,68.3,954.4,65.2,954.4,61.4"/>
	<path id="path292" inkscape:connector-curvature="0" class="st0" d="M1322.1,56.3c-4.6,9.8-48.7,104.6-48.7,104.6
		s15.5,27.3,16.7,29.4c2.7,4.7,2.2,8.2-5.1,8.2h-31.4c-4.9,0-7.9-1.9-9.8-5.2c-0.9-1.7-47.1-82.8-47.1-82.8s-26.7,56.8-29.1,61.8
		c-3.4,7.2-10.2,16-19,20.8c-8.4,4.6-16.1,5.4-29.1,5.4h-1.5c-9.4,0-8.6-4.9-7-8.3c1-2.1,59.4-126.3,59.4-126.3
		s-15.1-26.5-16.1-28.3c-2.9-5.1,0-7.3,4.8-7.3h30c6.1,0,10.6,2.8,13.3,7.6c1.8,3.2,44.5,78.2,44.5,78.2s37.4-80.3,38.3-82.2
		c1.2-2.5,3.5-3.6,6.7-3.6h25.7C1326.4,28.3,1332.8,33.3,1322.1,56.3"/>
	<path id="path296" inkscape:connector-curvature="0" class="st0" d="M1388.7,28.3h258.4c4.7,0,6.7,3.8,4.5,8.5l-10.9,23.3
		c-2.2,4.7-7.8,8.5-12.5,8.5h-258.4c-4.7,0-6.7-3.8-4.5-8.5l10.9-23.3C1378.4,32.1,1384,28.3,1388.7,28.3"/>
	<path id="path300" inkscape:connector-curvature="0" class="st0" d="M1485,81.9l4.7,12.5h17.8c3.8,0,4.7,3,1,7.1l-11.3,13l4.6,12.2
		c1.1,2.7,1.3,5.7-5.2,5.7h-15l-11.3,13c-2.8,3.2-3.8,3.3-5.3-0.7l-4.6-12.3h-18.2c-3.8,0-4.7-3-1-7.1L1453,112l-4.5-11.9
		c-1-2.7-1.3-5.7,5.2-5.7h14.6l11.5-13.2C1482.5,78,1483.5,77.9,1485,81.9"/>
</g>
</svg>
